<mxfile host="app.diagrams.net" modified="2024-05-13T14:59:02.727Z" agent="Mozilla/5.0 (Windows NT 10.0; Win64; x64) AppleWebKit/537.36 (KHTML, like Gecko) Chrome/124.0.0.0 Safari/537.36" etag="dwi1_UV7I7soFZIAjpFt" version="24.4.0" type="github">
  <diagram name="Page-1" id="WcU2-rj4ujFakDKieW-e">
    <mxGraphModel dx="1134" dy="656" grid="1" gridSize="10" guides="1" tooltips="1" connect="1" arrows="1" fold="1" page="1" pageScale="1" pageWidth="827" pageHeight="1169" math="0" shadow="0">
      <root>
        <mxCell id="0" />
        <mxCell id="1" parent="0" />
        <mxCell id="Txl1YUPHuKetv443UR-g-1" value="User" style="swimlane;whiteSpace=wrap;html=1;direction=east;" vertex="1" parent="1">
          <mxGeometry x="300" y="100" width="210" height="650" as="geometry" />
        </mxCell>
        <mxCell id="QtDyZnjSP6VQ8vrl4qWN-1" value="" style="ellipse;html=1;shape=startState;fillColor=#000000;strokeColor=#ff0000;" parent="Txl1YUPHuKetv443UR-g-1" vertex="1">
          <mxGeometry x="85" y="40" width="30" height="30" as="geometry" />
        </mxCell>
        <mxCell id="QtDyZnjSP6VQ8vrl4qWN-3" value="start game" style="rounded=1;whiteSpace=wrap;html=1;" parent="Txl1YUPHuKetv443UR-g-1" vertex="1">
          <mxGeometry x="40" y="110" width="120" height="60" as="geometry" />
        </mxCell>
        <mxCell id="QtDyZnjSP6VQ8vrl4qWN-2" value="" style="edgeStyle=orthogonalEdgeStyle;html=1;verticalAlign=bottom;endArrow=open;endSize=8;strokeColor=#ff0000;rounded=0;entryX=0.5;entryY=0;entryDx=0;entryDy=0;" parent="Txl1YUPHuKetv443UR-g-1" source="QtDyZnjSP6VQ8vrl4qWN-1" edge="1" target="QtDyZnjSP6VQ8vrl4qWN-3">
          <mxGeometry relative="1" as="geometry">
            <mxPoint x="-125" y="60" as="targetPoint" />
          </mxGeometry>
        </mxCell>
        <mxCell id="Txl1YUPHuKetv443UR-g-6" value="Choose player and opponent" style="rounded=1;whiteSpace=wrap;html=1;" vertex="1" parent="Txl1YUPHuKetv443UR-g-1">
          <mxGeometry x="40" y="260" width="120" height="60" as="geometry" />
        </mxCell>
        <mxCell id="Txl1YUPHuKetv443UR-g-2" value="System" style="swimlane;whiteSpace=wrap;html=1;" vertex="1" parent="1">
          <mxGeometry x="510" y="100" width="290" height="650" as="geometry" />
        </mxCell>
        <mxCell id="QtDyZnjSP6VQ8vrl4qWN-4" value="Displays Game started" style="rounded=1;whiteSpace=wrap;html=1;" parent="Txl1YUPHuKetv443UR-g-2" vertex="1">
          <mxGeometry x="60" y="110" width="120" height="60" as="geometry" />
        </mxCell>
        <mxCell id="Txl1YUPHuKetv443UR-g-14" style="edgeStyle=orthogonalEdgeStyle;rounded=0;orthogonalLoop=1;jettySize=auto;html=1;entryX=0.75;entryY=1;entryDx=0;entryDy=0;" edge="1" parent="Txl1YUPHuKetv443UR-g-2" source="Txl1YUPHuKetv443UR-g-10" target="QtDyZnjSP6VQ8vrl4qWN-4">
          <mxGeometry relative="1" as="geometry" />
        </mxCell>
        <mxCell id="Txl1YUPHuKetv443UR-g-10" value="Players selected?" style="rhombus;whiteSpace=wrap;html=1;" vertex="1" parent="Txl1YUPHuKetv443UR-g-2">
          <mxGeometry x="110" y="250" width="80" height="80" as="geometry" />
        </mxCell>
        <mxCell id="Txl1YUPHuKetv443UR-g-15" value="[No]" style="text;html=1;align=center;verticalAlign=middle;resizable=0;points=[];autosize=1;strokeColor=none;fillColor=none;" vertex="1" parent="Txl1YUPHuKetv443UR-g-2">
          <mxGeometry x="140" y="228" width="50" height="30" as="geometry" />
        </mxCell>
        <mxCell id="Txl1YUPHuKetv443UR-g-4" value="Fight" style="swimlane;whiteSpace=wrap;html=1;" vertex="1" parent="1">
          <mxGeometry x="800" y="100" width="370" height="650" as="geometry" />
        </mxCell>
        <mxCell id="Txl1YUPHuKetv443UR-g-3" value="Fight" style="rounded=0;whiteSpace=wrap;html=1;" vertex="1" parent="Txl1YUPHuKetv443UR-g-4">
          <mxGeometry x="130" y="100" width="120" height="60" as="geometry" />
        </mxCell>
        <mxCell id="Txl1YUPHuKetv443UR-g-9" value="Fight&amp;nbsp; starts" style="rounded=1;whiteSpace=wrap;html=1;" vertex="1" parent="Txl1YUPHuKetv443UR-g-4">
          <mxGeometry x="110" y="260" width="120" height="60" as="geometry" />
        </mxCell>
        <mxCell id="Txl1YUPHuKetv443UR-g-16" value="System creaes fight object" style="shape=note;whiteSpace=wrap;html=1;backgroundOutline=1;darkOpacity=0.05;direction=north;" vertex="1" parent="Txl1YUPHuKetv443UR-g-4">
          <mxGeometry x="5" y="55" width="105" height="65" as="geometry" />
        </mxCell>
        <mxCell id="Txl1YUPHuKetv443UR-g-17" value="continue fight&lt;div&gt;[HP &amp;gt; 0]&lt;/div&gt;" style="swimlane;fontStyle=4;align=center;verticalAlign=top;childLayout=stackLayout;horizontal=1;startSize=60;horizontalStack=0;resizeParent=1;resizeParentMax=0;resizeLast=0;collapsible=0;marginBottom=0;html=1;rounded=1;absoluteArcSize=1;arcSize=57;whiteSpace=wrap;" vertex="1" parent="Txl1YUPHuKetv443UR-g-4">
          <mxGeometry x="95" y="470" width="140" height="176" as="geometry" />
        </mxCell>
        <mxCell id="Txl1YUPHuKetv443UR-g-18" value="" style="fillColor=none;strokeColor=none;container=1;collapsible=0;" vertex="1" parent="Txl1YUPHuKetv443UR-g-17">
          <mxGeometry y="60" width="140" height="50" as="geometry" />
        </mxCell>
        <mxCell id="Txl1YUPHuKetv443UR-g-19" value="State2" style="html=1;align=center;verticalAlign=middle;rounded=1;absoluteArcSize=1;arcSize=10;whiteSpace=wrap;" vertex="1" parent="Txl1YUPHuKetv443UR-g-18">
          <mxGeometry x="30" y="10" width="80" height="30" as="geometry" />
        </mxCell>
        <mxCell id="Txl1YUPHuKetv443UR-g-20" value="" style="line;strokeWidth=1;fillColor=none;align=left;verticalAlign=middle;spacingTop=-1;spacingLeft=3;spacingRight=3;rotatable=0;labelPosition=right;points=[];portConstraint=eastwest;" vertex="1" parent="Txl1YUPHuKetv443UR-g-17">
          <mxGeometry y="110" width="140" height="8" as="geometry" />
        </mxCell>
        <mxCell id="Txl1YUPHuKetv443UR-g-21" value="behavior1" style="fillColor=none;strokeColor=none;align=left;verticalAlign=middle;spacingLeft=5;whiteSpace=wrap;html=1;" vertex="1" parent="Txl1YUPHuKetv443UR-g-17">
          <mxGeometry y="118" width="140" height="25" as="geometry" />
        </mxCell>
        <mxCell id="Txl1YUPHuKetv443UR-g-22" value="" style="line;strokeWidth=1;fillColor=none;align=left;verticalAlign=middle;spacingTop=-1;spacingLeft=3;spacingRight=3;rotatable=0;labelPosition=right;points=[];portConstraint=eastwest;" vertex="1" parent="Txl1YUPHuKetv443UR-g-17">
          <mxGeometry y="143" width="140" height="8" as="geometry" />
        </mxCell>
        <mxCell id="Txl1YUPHuKetv443UR-g-23" value="transition1" style="fillColor=none;strokeColor=none;align=left;verticalAlign=middle;spacingLeft=5;whiteSpace=wrap;html=1;" vertex="1" parent="Txl1YUPHuKetv443UR-g-17">
          <mxGeometry y="151" width="140" height="25" as="geometry" />
        </mxCell>
        <mxCell id="Txl1YUPHuKetv443UR-g-5" style="edgeStyle=orthogonalEdgeStyle;rounded=0;orthogonalLoop=1;jettySize=auto;html=1;" edge="1" parent="1" source="QtDyZnjSP6VQ8vrl4qWN-3" target="QtDyZnjSP6VQ8vrl4qWN-4">
          <mxGeometry relative="1" as="geometry" />
        </mxCell>
        <mxCell id="Txl1YUPHuKetv443UR-g-7" style="edgeStyle=orthogonalEdgeStyle;rounded=0;orthogonalLoop=1;jettySize=auto;html=1;entryX=0.5;entryY=0;entryDx=0;entryDy=0;exitX=0.25;exitY=1;exitDx=0;exitDy=0;" edge="1" parent="1" source="Txl1YUPHuKetv443UR-g-3" target="Txl1YUPHuKetv443UR-g-6">
          <mxGeometry relative="1" as="geometry">
            <Array as="points">
              <mxPoint x="970" y="260" />
              <mxPoint x="970" y="300" />
              <mxPoint x="400" y="300" />
            </Array>
          </mxGeometry>
        </mxCell>
        <mxCell id="Txl1YUPHuKetv443UR-g-8" style="edgeStyle=orthogonalEdgeStyle;rounded=0;orthogonalLoop=1;jettySize=auto;html=1;entryX=0;entryY=0.5;entryDx=0;entryDy=0;" edge="1" parent="1" source="QtDyZnjSP6VQ8vrl4qWN-4" target="Txl1YUPHuKetv443UR-g-3">
          <mxGeometry relative="1" as="geometry" />
        </mxCell>
        <mxCell id="Txl1YUPHuKetv443UR-g-11" style="edgeStyle=orthogonalEdgeStyle;rounded=0;orthogonalLoop=1;jettySize=auto;html=1;entryX=0;entryY=0.5;entryDx=0;entryDy=0;" edge="1" parent="1" source="Txl1YUPHuKetv443UR-g-6" target="Txl1YUPHuKetv443UR-g-10">
          <mxGeometry relative="1" as="geometry" />
        </mxCell>
        <mxCell id="Txl1YUPHuKetv443UR-g-12" style="edgeStyle=orthogonalEdgeStyle;rounded=0;orthogonalLoop=1;jettySize=auto;html=1;" edge="1" parent="1" source="Txl1YUPHuKetv443UR-g-10" target="Txl1YUPHuKetv443UR-g-9">
          <mxGeometry relative="1" as="geometry" />
        </mxCell>
        <mxCell id="Txl1YUPHuKetv443UR-g-13" value="[Yes]" style="text;html=1;align=center;verticalAlign=middle;resizable=0;points=[];autosize=1;strokeColor=none;fillColor=none;" vertex="1" parent="1">
          <mxGeometry x="695" y="368" width="50" height="30" as="geometry" />
        </mxCell>
        <mxCell id="Txl1YUPHuKetv443UR-g-26" style="edgeStyle=orthogonalEdgeStyle;rounded=0;orthogonalLoop=1;jettySize=auto;html=1;entryX=-0.011;entryY=0.176;entryDx=0;entryDy=0;entryPerimeter=0;" edge="1" parent="1" target="Txl1YUPHuKetv443UR-g-43">
          <mxGeometry relative="1" as="geometry">
            <mxPoint x="1030" y="377" as="sourcePoint" />
            <mxPoint x="1500" y="340" as="targetPoint" />
            <Array as="points" />
          </mxGeometry>
        </mxCell>
        <mxCell id="Txl1YUPHuKetv443UR-g-28" value="Player" style="swimlane;whiteSpace=wrap;html=1;fillColor=none;" vertex="1" parent="1">
          <mxGeometry x="1170" y="100" width="660" height="800" as="geometry" />
        </mxCell>
        <mxCell id="Txl1YUPHuKetv443UR-g-29" value="Player" style="rounded=0;whiteSpace=wrap;html=1;" vertex="1" parent="Txl1YUPHuKetv443UR-g-28">
          <mxGeometry x="120" y="140" width="155" height="60" as="geometry" />
        </mxCell>
        <mxCell id="Txl1YUPHuKetv443UR-g-34" style="edgeStyle=orthogonalEdgeStyle;rounded=0;orthogonalLoop=1;jettySize=auto;html=1;entryX=0;entryY=0.5;entryDx=0;entryDy=0;exitX=-0.8;exitY=0.888;exitDx=0;exitDy=0;exitPerimeter=0;" edge="1" parent="Txl1YUPHuKetv443UR-g-28" source="Txl1YUPHuKetv443UR-g-31" target="Txl1YUPHuKetv443UR-g-29">
          <mxGeometry relative="1" as="geometry">
            <mxPoint x="50" y="310" as="sourcePoint" />
          </mxGeometry>
        </mxCell>
        <mxCell id="Txl1YUPHuKetv443UR-g-31" value="" style="html=1;points=[];perimeter=orthogonalPerimeter;fillColor=strokeColor;" vertex="1" parent="Txl1YUPHuKetv443UR-g-28">
          <mxGeometry x="40" y="60" width="5" height="190" as="geometry" />
        </mxCell>
        <mxCell id="Txl1YUPHuKetv443UR-g-24" value="Selects an attack" style="rounded=1;whiteSpace=wrap;html=1;" vertex="1" parent="Txl1YUPHuKetv443UR-g-28">
          <mxGeometry x="60" y="485" width="120" height="60" as="geometry" />
        </mxCell>
        <mxCell id="Txl1YUPHuKetv443UR-g-43" value="&amp;lt;&amp;lt;Continue Fight&amp;gt;&amp;gt;&lt;div&gt;[HP &amp;gt; 0]&lt;br&gt;&lt;div&gt;&lt;br&gt;&lt;/div&gt;&lt;/div&gt;" style="dashed=1;rounded=1;absoluteArcSize=1;arcSize=20;html=1;verticalAlign=top;align=left;spacingTop=5;spacingLeft=10;whiteSpace=wrap;fillColor=none;" vertex="1" parent="Txl1YUPHuKetv443UR-g-28">
          <mxGeometry x="15" y="250" width="635" height="150" as="geometry" />
        </mxCell>
        <mxCell id="Txl1YUPHuKetv443UR-g-46" value="" style="ellipse;html=1;shape=startState;fillColor=#000000;strokeColor=#ff0000;" vertex="1" parent="Txl1YUPHuKetv443UR-g-28">
          <mxGeometry x="81" y="305" width="30" height="30" as="geometry" />
        </mxCell>
        <mxCell id="Txl1YUPHuKetv443UR-g-50" value="no" style="edgeStyle=orthogonalEdgeStyle;html=1;align=left;verticalAlign=bottom;endArrow=open;endSize=8;strokeColor=#ff0000;rounded=0;" edge="1" source="Txl1YUPHuKetv443UR-g-49" parent="Txl1YUPHuKetv443UR-g-28">
          <mxGeometry x="-1" relative="1" as="geometry">
            <mxPoint x="410" y="320" as="targetPoint" />
          </mxGeometry>
        </mxCell>
        <mxCell id="Txl1YUPHuKetv443UR-g-54" value="" style="ellipse;" vertex="1" parent="Txl1YUPHuKetv443UR-g-28">
          <mxGeometry x="51" y="340" width="30" height="30" as="geometry" />
        </mxCell>
        <mxCell id="Txl1YUPHuKetv443UR-g-56" value="&amp;lt;&amp;lt;structured&amp;gt;&amp;gt;" style="dashed=1;rounded=1;absoluteArcSize=1;arcSize=20;html=1;verticalAlign=top;align=left;spacingTop=5;spacingLeft=10;whiteSpace=wrap;fillColor=none;" vertex="1" parent="Txl1YUPHuKetv443UR-g-28">
          <mxGeometry x="10" y="400" width="640" height="100" as="geometry" />
        </mxCell>
        <mxCell id="Txl1YUPHuKetv443UR-g-30" style="edgeStyle=orthogonalEdgeStyle;rounded=0;orthogonalLoop=1;jettySize=auto;html=1;exitX=1;exitY=0;exitDx=0;exitDy=0;" edge="1" parent="1" source="Txl1YUPHuKetv443UR-g-9">
          <mxGeometry relative="1" as="geometry">
            <mxPoint x="1210" y="270" as="targetPoint" />
            <Array as="points">
              <mxPoint x="1080" y="360" />
              <mxPoint x="1080" y="270" />
              <mxPoint x="1211" y="270" />
            </Array>
          </mxGeometry>
        </mxCell>
        <mxCell id="Txl1YUPHuKetv443UR-g-33" value="Opponent" style="swimlane;whiteSpace=wrap;html=1;" vertex="1" parent="1">
          <mxGeometry x="1440" y="100" width="400" height="800" as="geometry" />
        </mxCell>
        <mxCell id="Txl1YUPHuKetv443UR-g-35" value="Opponent" style="rounded=0;whiteSpace=wrap;html=1;" vertex="1" parent="Txl1YUPHuKetv443UR-g-33">
          <mxGeometry x="60" y="60" width="120" height="60" as="geometry" />
        </mxCell>
        <mxCell id="Txl1YUPHuKetv443UR-g-39" value="" style="edgeStyle=orthogonalEdgeStyle;rounded=0;orthogonalLoop=1;jettySize=auto;html=1;" edge="1" parent="Txl1YUPHuKetv443UR-g-33" source="Txl1YUPHuKetv443UR-g-37" target="Txl1YUPHuKetv443UR-g-38">
          <mxGeometry relative="1" as="geometry" />
        </mxCell>
        <mxCell id="Txl1YUPHuKetv443UR-g-37" value="Selects a defense" style="rounded=1;whiteSpace=wrap;html=1;" vertex="1" parent="Txl1YUPHuKetv443UR-g-33">
          <mxGeometry x="110" y="485" width="120" height="60" as="geometry" />
        </mxCell>
        <mxCell id="Txl1YUPHuKetv443UR-g-41" value="" style="edgeStyle=orthogonalEdgeStyle;rounded=0;orthogonalLoop=1;jettySize=auto;html=1;" edge="1" parent="Txl1YUPHuKetv443UR-g-33" source="Txl1YUPHuKetv443UR-g-38" target="Txl1YUPHuKetv443UR-g-40">
          <mxGeometry relative="1" as="geometry" />
        </mxCell>
        <mxCell id="Txl1YUPHuKetv443UR-g-38" value="defense matchs?" style="rhombus;whiteSpace=wrap;html=1;" vertex="1" parent="Txl1YUPHuKetv443UR-g-33">
          <mxGeometry x="150" y="590" width="80" height="80" as="geometry" />
        </mxCell>
        <mxCell id="Txl1YUPHuKetv443UR-g-40" value="Reduce Hp" style="rounded=1;whiteSpace=wrap;html=1;" vertex="1" parent="Txl1YUPHuKetv443UR-g-33">
          <mxGeometry x="130" y="710" width="120" height="60" as="geometry" />
        </mxCell>
        <mxCell id="Txl1YUPHuKetv443UR-g-49" value="HP &amp;gt; 0" style="rhombus;whiteSpace=wrap;html=1;fontColor=#000000;fillColor=#ffffc0;strokeColor=#ff0000;" vertex="1" parent="Txl1YUPHuKetv443UR-g-33">
          <mxGeometry x="10" y="300" width="80" height="40" as="geometry" />
        </mxCell>
        <mxCell id="Txl1YUPHuKetv443UR-g-53" value="" style="shape=sumEllipse;perimeter=ellipsePerimeter;html=1;backgroundOutline=1;" vertex="1" parent="Txl1YUPHuKetv443UR-g-33">
          <mxGeometry x="140" y="305" width="30" height="30" as="geometry" />
        </mxCell>
        <mxCell id="Txl1YUPHuKetv443UR-g-42" value="[No]" style="text;html=1;align=center;verticalAlign=middle;resizable=0;points=[];autosize=1;strokeColor=none;fillColor=none;" vertex="1" parent="Txl1YUPHuKetv443UR-g-33">
          <mxGeometry x="110" y="580" width="50" height="30" as="geometry" />
        </mxCell>
        <mxCell id="Txl1YUPHuKetv443UR-g-36" value="" style="endArrow=classic;html=1;rounded=0;entryX=0;entryY=0.5;entryDx=0;entryDy=0;exitX=1.486;exitY=0.122;exitDx=0;exitDy=0;exitPerimeter=0;" edge="1" parent="1" source="Txl1YUPHuKetv443UR-g-31" target="Txl1YUPHuKetv443UR-g-35">
          <mxGeometry width="50" height="50" relative="1" as="geometry">
            <mxPoint x="1190" y="220" as="sourcePoint" />
            <mxPoint x="1240" y="170" as="targetPoint" />
          </mxGeometry>
        </mxCell>
        <mxCell id="Txl1YUPHuKetv443UR-g-27" style="edgeStyle=orthogonalEdgeStyle;rounded=0;orthogonalLoop=1;jettySize=auto;html=1;entryX=0;entryY=0.5;entryDx=0;entryDy=0;" edge="1" parent="1" source="Txl1YUPHuKetv443UR-g-24" target="Txl1YUPHuKetv443UR-g-37">
          <mxGeometry relative="1" as="geometry">
            <mxPoint x="1560" y="440" as="targetPoint" />
            <Array as="points" />
          </mxGeometry>
        </mxCell>
        <mxCell id="Txl1YUPHuKetv443UR-g-47" value="" style="edgeStyle=orthogonalEdgeStyle;html=1;verticalAlign=bottom;endArrow=open;endSize=8;strokeColor=#ff0000;rounded=0;entryX=0;entryY=0.5;entryDx=0;entryDy=0;" edge="1" source="Txl1YUPHuKetv443UR-g-46" parent="1" target="Txl1YUPHuKetv443UR-g-49">
          <mxGeometry relative="1" as="geometry">
            <mxPoint x="1390" y="420" as="targetPoint" />
            <Array as="points">
              <mxPoint x="1390" y="421" />
            </Array>
          </mxGeometry>
        </mxCell>
        <mxCell id="Txl1YUPHuKetv443UR-g-52" value="" style="endArrow=open;endFill=1;endSize=12;html=1;rounded=0;entryX=0.25;entryY=0;entryDx=0;entryDy=0;exitX=0.5;exitY=1;exitDx=0;exitDy=0;" edge="1" parent="1" source="Txl1YUPHuKetv443UR-g-49" target="Txl1YUPHuKetv443UR-g-24">
          <mxGeometry width="160" relative="1" as="geometry">
            <mxPoint x="1490" y="430" as="sourcePoint" />
            <mxPoint x="1650" y="430" as="targetPoint" />
            <Array as="points">
              <mxPoint x="1490" y="480" />
              <mxPoint x="1260" y="480" />
            </Array>
          </mxGeometry>
        </mxCell>
        <mxCell id="Txl1YUPHuKetv443UR-g-55" value="[Yes]" style="text;html=1;align=center;verticalAlign=middle;resizable=0;points=[];autosize=1;strokeColor=none;fillColor=none;" vertex="1" parent="1">
          <mxGeometry x="1535" y="758" width="50" height="30" as="geometry" />
        </mxCell>
      </root>
    </mxGraphModel>
  </diagram>
</mxfile>
